<?xml version="1.0" encoding="UTF-8" standalone="no"?>
<!-- Created with Inkscape (http://www.inkscape.org/) -->

<svg
   xmlns:dc="http://purl.org/dc/elements/1.1/"
   xmlns:cc="http://creativecommons.org/ns#"
   xmlns:rdf="http://www.w3.org/1999/02/22-rdf-syntax-ns#"
   xmlns:svg="http://www.w3.org/2000/svg"
   xmlns="http://www.w3.org/2000/svg"
   xmlns:sodipodi="http://sodipodi.sourceforge.net/DTD/sodipodi-0.dtd"
   xmlns:inkscape="http://www.inkscape.org/namespaces/inkscape"
   width="17.943518mm"
   height="19.957142mm"
   viewBox="0 0 63.579393 70.714282"
   id="svg2"
   version="1.1"
   inkscape:version="0.91 r13725"
   sodipodi:docname="logosvg.svg">
  <defs
     id="defs4" />
  <sodipodi:namedview
     id="base"
     pagecolor="#ffffff"
     bordercolor="#666666"
     borderopacity="1.0"
     inkscape:pageopacity="0.0"
     inkscape:pageshadow="2"
     inkscape:zoom="2.8"
     inkscape:cx="113.74322"
     inkscape:cy="-12.429115"
     inkscape:document-units="px"
     inkscape:current-layer="layer1"
     showgrid="false"
     inkscape:window-width="1600"
     inkscape:window-height="837"
     inkscape:window-x="-8"
     inkscape:window-y="-8"
     inkscape:window-maximized="1"
     fit-margin-top="0"
     fit-margin-left="0"
     fit-margin-right="0"
     fit-margin-bottom="0" />
  <metadata
     id="metadata7">
    <rdf:RDF>
      <cc:Work
         rdf:about="">
        <dc:format>image/svg+xml</dc:format>
        <dc:type
           rdf:resource="http://purl.org/dc/dcmitype/StillImage" />
        <dc:title></dc:title>
      </cc:Work>
    </rdf:RDF>
  </metadata>
  <g
     inkscape:label="Layer 1"
     inkscape:groupmode="layer"
     id="layer1"
     transform="translate(-25.308105,-16.290779)">
    <g
       id="g4200"
       inkscape:export-xdpi="90"
       inkscape:export-ydpi="90">
      <path
         sodipodi:nodetypes="csccscc"
         inkscape:connector-curvature="0"
         id="path3347-3"
         d="m 25.684702,86.99846 c 0,0 -2.81509,-24.80862 6.94796,-36.968101 12.150089,-15.13244 8.766329,-33.38904 8.766329,-33.38904 l 14.64286,0 c 0.21822,0.11553 2.08169,19.21845 -8.75001,34.10715 -9.55394,13.132351 -7.67857,36.249991 -7.67857,36.249991 z"
         style="fill:#aca793;fill-opacity:0.72189349;fill-rule:evenodd;stroke:none;stroke-width:1px;stroke-linecap:butt;stroke-linejoin:miter;stroke-opacity:1" />
      <path
         sodipodi:nodetypes="csccscc"
         inkscape:connector-curvature="0"
         id="path3347-3-6"
         d="m 72.082331,87.00506 c 0,0 2.81509,-24.80862 -6.94796,-36.968101 -12.15009,-15.13244 -8.76633,-33.38904 -8.76633,-33.38904 l -14.64286,0 c -0.21822,0.11553 -2.08169,19.21845 8.75001,34.10715 9.55394,13.132351 7.67857,36.249991 7.67857,36.249991 z"
         style="fill:#519de6;fill-opacity:0.47337281;fill-rule:evenodd;stroke:none;stroke-width:1px;stroke-linecap:butt;stroke-linejoin:miter;stroke-opacity:1" />
      <path
         sodipodi:nodetypes="csccscc"
         inkscape:connector-curvature="0"
         id="path3347-3-8"
         d="m 58.274811,86.64791 c 0,0 -2.81509,-24.80862 6.94796,-36.968101 12.15009,-15.13243 8.76633,-33.38903 8.76633,-33.38903 l 14.64286,0 c 0.21822,0.11553 2.08169,19.21845 -8.75001,34.10714 -9.55394,13.132351 -7.67857,36.249991 -7.67857,36.249991 z"
         style="fill:#0851c3;fill-opacity:0.57988168;fill-rule:evenodd;stroke:none;stroke-width:1px;stroke-linecap:butt;stroke-linejoin:miter;stroke-opacity:1" />
    </g>
  </g>
</svg>
